# xmcd
#
# Track frame offsets:
# 150
# 13537
# 29385
# 41812
# 56388
# 71487
# 89487
# 103592
# 120105
# 138519
# 153614
# 171223
# 192398
# 207094
#
# Disc length: 2916 seconds
#
#
# Revision: 0
# Processed by: cddbd v1.5.1PL2 Copyright (c) Steve Scherf et al.
# Submitted via: FreeRIP 2.51 
#
DISCID=bb0b620e
DTITLE=B.J. Thomas - GoldenLegends
DYEAR=2006
DGENRE=
TTITLE0=Raindrops Keep Falling On My Head
TTITLE1=Another Somebody Done Somebody Wrong Song
TTITLE2=Hooked On A Feeling
TTITLE3=I Just Can't Help Believin'
TTITLE4=No Love At All
TTITLE5=Rock and Roll Lullaby
TTITLE6=I'm So Lonesome I Could Cry
TTITLE7=What's Forever For
TTITLE8=Best Thing That Ever Happened To Me
TTITLE9=Ballyhoo Days
TTITLE10=Back Against The Wall
TTITLE11=No Other Baby
TTITLE12=Call It A Mountain
TTITLE13=To Be Loved
EXTD=
EXTT0=
EXTT1=
EXTT2=
EXTT3=
EXTT4=
EXTT5=
EXTT6=
EXTT7=
EXTT8=
EXTT9=
EXTT10=
EXTT11=
EXTT12=
EXTT13=
PLAYORDER=
